<?xml version="1.0" encoding="UTF-8"?>
<svg data-bbox="-0.001 0 129.702 40.001" xmlns="http://www.w3.org/2000/svg" viewBox="0 0 130 40" data-type="tint">
    <g>
        <path fill="#A6A6A6" d="M120.171 0H9.535c-.367 0-.73 0-1.095.002-.306.002-.61.008-.919.013C6.85.023 6.18.082 5.517.19a6.665 6.665 0 0 0-1.9.627A6.438 6.438 0 0 0 .193 5.521a12.993 12.993 0 0 0-.179 2.002c-.01.307-.01.615-.015.921V31.56c.005.31.006.61.015.921.008.671.068 1.34.18 2.002.11.663.32 1.306.624 1.905a6.2 6.2 0 0 0 1.179 1.614 6.282 6.282 0 0 0 1.618 1.179c.599.304 1.24.517 1.901.63.663.11 1.333.168 2.004.177.31.007.613.011.919.011.366.002.728.002 1.095.002H120.17c.36 0 .725 0 1.084-.002.305 0 .618-.004.922-.01.67-.01 1.339-.068 2-.178a6.814 6.814 0 0 0 1.909-.63A6.296 6.296 0 0 0 127.703 38a6.377 6.377 0 0 0 1.181-1.614c.302-.6.511-1.242.619-1.905.112-.661.174-1.33.186-2.002.004-.31.004-.61.004-.921.008-.364.008-.725.008-1.094V9.536c0-.366 0-.73-.008-1.092 0-.306 0-.614-.004-.92a13.437 13.437 0 0 0-.186-2.003 6.587 6.587 0 0 0-.619-1.903 6.467 6.467 0 0 0-2.798-2.8 6.777 6.777 0 0 0-1.909-.627 13.004 13.004 0 0 0-2-.176c-.304-.005-.617-.011-.922-.013C120.896 0 120.531 0 120.171 0z"/>
        <path d="M8.445 39.125c-.305 0-.602-.004-.904-.01a12.696 12.696 0 0 1-1.87-.164 5.884 5.884 0 0 1-1.656-.548 5.406 5.406 0 0 1-1.397-1.016 5.321 5.321 0 0 1-1.02-1.397 5.722 5.722 0 0 1-.544-1.657 12.413 12.413 0 0 1-.166-1.875c-.007-.21-.015-.913-.015-.913v-23.1s.009-.692.015-.895a12.37 12.37 0 0 1 .165-1.872 5.755 5.755 0 0 1 .544-1.662c.26-.518.603-.99 1.015-1.398A5.565 5.565 0 0 1 5.668 1.05c.62-.1 1.247-.155 1.875-.163l.902-.012h112.806l.913.013c.622.007 1.244.061 1.858.162a5.943 5.943 0 0 1 1.671.548 5.594 5.594 0 0 1 2.415 2.42c.26.52.441 1.076.535 1.649.104.624.162 1.255.174 1.887.003.283.003.588.003.89.008.375.008.732.008 1.092v20.929c0 .363 0 .718-.008 1.075 0 .325 0 .623-.004.93-.012.62-.069 1.24-.171 1.853a5.716 5.716 0 0 1-.54 1.67c-.264.513-.606.98-1.016 1.386a5.409 5.409 0 0 1-1.399 1.022 5.865 5.865 0 0 1-1.668.55c-.618.101-1.243.156-1.869.163-.293.007-.6.011-.898.011l-1.084.002-111.726-.002z"/>
        <path fill="#ffffff" d="M37.927 25.284h-2.514v3.49a16.88 16.88 0 0 0 3.103-.23l.092.753a21.76 21.76 0 0 1-3.568.259h-.545v-5.033h3.432v.761zm2.087 1.402H41.1v.765h-1.086v3.845h-.927V23.82h.927v2.866z"/>
        <path fill="#ffffff" d="M48.555 27.504v.738h-2.857v1.41h-.936v-1.41h-2.966v-.738h6.759zm-5.972-1.974c0-.866 1.006-1.494 2.597-1.494 1.59 0 2.606.628 2.606 1.494 0 .88-1.015 1.507-2.598 1.507-1.6 0-2.605-.628-2.605-1.507zm.97 4.83h4.224v.734h-5.142v-2.127h.919v1.392zm-.026-4.82c0 .478.7.786 1.648.786.98 0 1.657-.308 1.657-.787 0-.488-.672-.8-1.652-.8-.954 0-1.653.312-1.653.8z"/>
        <path fill="#ffffff" d="M56.154 29.613v.739h-6.759v-.739h2.914v-1.218h-2.048v-2.452h4.1v-.91h-4.113v-.742h5.05v2.4h-4.114v.966h4.302v.738h-2.254v1.218h2.922z"/>
        <path fill="#ffffff" d="M63.754 30.303h-6.758v-.739h6.758v.739zm-.87-5.102h-4.1v2.057h4.157v.746h-5.07v-3.55h5.013v.747z"/>
        <path fill="#ffffff" d="M71.175 26.357h-4.36v-.734h4.36v.733zm-2.14 3.52a1.599 1.599 0 1 1 1.797-1.587 1.633 1.633 0 0 1-1.797 1.587zm1.13-4.821h-2.268v-.751h2.268v.75zm-1.13 4.09a.862.862 0 0 0 .642-1.486.862.862 0 0 0-.642-.231.859.859 0 1 0 0 1.718zm3.656-2.236h1.072v.76h-1.072v3.626h-.922v-7.47h.922v3.084z"/>
        <path fill="#ffffff" d="M74.996 29.938l-.523-.725a4.924 4.924 0 0 0 2.936-3.84H74.89v-.766h3.503a5.966 5.966 0 0 1-3.397 5.33zm5.642 1.363h-.927v-7.48h.927v7.48z"/>
        <path fill="#ffffff" d="M41.16 16.554h-4.045l-.97 2.868H34.43L38.263 8.81h1.779l3.832 10.613h-1.743l-.97-2.868zm-3.626-1.324h3.207l-1.582-4.655h-.044l-1.58 4.655z"/>
        <path fill="#ffffff" d="M52.164 15.554c0 2.405-1.287 3.95-3.228 3.95A2.62 2.62 0 0 1 46.5 18.15h-.036v3.832h-1.589V11.685h1.537v1.287h.03a2.744 2.744 0 0 1 2.463-1.368c1.964 0 3.258 1.552 3.258 3.95zm-1.633 0c0-1.567-.808-2.597-2.044-2.597-1.214 0-2.03 1.052-2.03 2.597 0 1.559.816 2.604 2.03 2.604 1.236 0 2.044-1.023 2.044-2.604z"/>
        <path fill="#ffffff" d="M60.695 15.554c0 2.405-1.287 3.95-3.228 3.95a2.621 2.621 0 0 1-2.435-1.354h-.036v3.832h-1.589V11.685h1.537v1.287h.03a2.744 2.744 0 0 1 2.464-1.368c1.963 0 3.257 1.552 3.257 3.95zm-1.633 0c0-1.567-.808-2.597-2.043-2.597-1.214 0-2.03 1.052-2.03 2.597 0 1.559.816 2.604 2.03 2.604 1.235 0 2.044-1.023 2.044-2.604z"/>
        <path fill="#ffffff" d="M66.354 16.465c.118 1.052 1.14 1.744 2.537 1.744 1.339 0 2.303-.692 2.303-1.64 0-.824-.581-1.317-1.957-1.655l-1.375-.332c-1.95-.47-2.854-1.381-2.854-2.86 0-1.83 1.596-3.089 3.862-3.089 2.243 0 3.78 1.258 3.832 3.09h-1.604c-.096-1.06-.97-1.7-2.25-1.7s-2.155.647-2.155 1.589c0 .75.558 1.191 1.927 1.53l1.169.286c2.176.515 3.082 1.39 3.082 2.943 0 1.985-1.581 3.228-4.097 3.228-2.354 0-3.942-1.214-4.044-3.134h1.624z"/>
        <path fill="#ffffff" d="M76.3 9.854v1.831h1.47v1.258H76.3v4.266c0 .662.293.97.94.97a4.53 4.53 0 0 0 .522-.036v1.25c-.29.054-.586.079-.882.073-1.567 0-2.177-.588-2.177-2.089v-4.434h-1.125v-1.258h1.125V9.854h1.596z"/>
        <path fill="#ffffff" d="M78.64 15.554c0-2.434 1.434-3.965 3.67-3.965 2.243 0 3.67 1.53 3.67 3.965 0 2.442-1.419 3.964-3.67 3.964-2.25 0-3.67-1.522-3.67-3.964zm5.722 0c0-1.67-.765-2.655-2.052-2.655s-2.052.992-2.052 2.655c0 1.677.765 2.655 2.052 2.655s2.052-.978 2.052-2.655z"/>
        <path fill="#ffffff" d="M87.29 11.685h1.515v1.316h.037a1.844 1.844 0 0 1 1.86-1.397c.184-.001.367.019.546.06v1.485a2.224 2.224 0 0 0-.714-.096 1.599 1.599 0 0 0-1.655 1.78v4.59h-1.588v-7.738z"/>
        <path fill="#ffffff" d="M98.57 17.15a3.104 3.104 0 0 1-3.332 2.368c-2.25 0-3.648-1.508-3.648-3.928 0-2.426 1.405-4 3.582-4 2.14 0 3.486 1.47 3.486 3.817v.544h-5.464v.095a2.015 2.015 0 0 0 2.08 2.192 1.75 1.75 0 0 0 1.788-1.088h1.508zm-5.37-2.31h3.87a1.86 1.86 0 0 0-1.898-1.963 1.958 1.958 0 0 0-1.971 1.963z"/>
        <path fill="#ffffff" d="M105.087 8.988h1.239v9.928h-1.239v-5.011h-.907c-.113 1.77-.832 3.31-2.284 3.31-1.595 0-2.302-1.852-2.302-3.829s.707-3.79 2.302-3.79c1.421 0 2.14 1.438 2.277 3.152h.914v-3.76zm-2.108 4.398c0-1.458-.351-2.571-1.083-2.571-.713 0-1.038 1.113-1.038 2.571 0 1.464.325 2.565 1.038 2.565.732 0 1.083-1.1 1.083-2.565zm5.511-4.611v10.641h-1.239V8.775h1.239z"/>
        <path fill="#ffffff" d="M114.087 11.271a4.959 4.959 0 0 0 2.628 4.604l-.769.996a5.856 5.856 0 0 1-2.522-2.866 5.853 5.853 0 0 1-2.552 3.141l-.814-.964a5.337 5.337 0 0 0 2.666-4.867V9.669h1.363v1.602zm4.987 8.145h-1.326v-5.85h-2.134v-1.118h2.134V8.775h1.326v10.641z"/>
        <path fill="#ffffff" d="M24.769 20.3a4.948 4.948 0 0 1 2.356-4.151 5.066 5.066 0 0 0-3.99-2.158c-1.68-.176-3.308 1.005-4.164 1.005-.872 0-2.19-.988-3.608-.958a5.315 5.315 0 0 0-4.473 2.727c-1.934 3.349-.492 8.27 1.361 10.976.927 1.326 2.01 2.806 3.428 2.754 1.387-.058 1.905-.885 3.58-.885 1.658 0 2.144.885 3.59.851 1.489-.024 2.426-1.33 3.32-2.669a10.963 10.963 0 0 0 1.52-3.092 4.782 4.782 0 0 1-2.92-4.4z"/>
        <path fill="#ffffff" d="M22.037 12.21a4.872 4.872 0 0 0 1.115-3.49 4.957 4.957 0 0 0-3.208 1.66 4.635 4.635 0 0 0-1.143 3.361 4.099 4.099 0 0 0 3.236-1.53z"/>
    </g>
</svg>
