<?xml version="1.0" encoding="UTF-8"?>
<svg data-bbox="0 0 135 40" xmlns="http://www.w3.org/2000/svg" viewBox="0 0 135 40" data-type="ugc">
    <g>
        <path fill="#000000" d="M130 0H5a5 5 0 0 0-5 5v30a5 5 0 0 0 5 5h125a5 5 0 0 0 5-5V5a5 5 0 0 0-5-5z"/>
        <path fill="#A6A6A6" d="M130 .8a4.2 4.2 0 0 1 4.2 4.2v30a4.198 4.198 0 0 1-4.2 4.2H5A4.2 4.2 0 0 1 .8 35V5A4.2 4.2 0 0 1 5 .8h125zm0-.8H5a5 5 0 0 0-5 5v30a5 5 0 0 0 5 5h125a5.002 5.002 0 0 0 5-5V5a5.002 5.002 0 0 0-5-5z"/>
        <path fill="#ffffff" d="M68.14 21.75A4.25 4.25 0 1 0 72.41 26a4.19 4.19 0 0 0-4.27-4.25zm0 6.83a2.58 2.58 0 1 1 2.4-2.58 2.46 2.46 0 0 1-2.4 2.58zm-9.31-6.83A4.25 4.25 0 1 0 63.09 26a4.19 4.19 0 0 0-4.27-4.25h.01zm0 6.83A2.58 2.58 0 1 1 61.22 26a2.46 2.46 0 0 1-2.4 2.58h.01zm-11.09-5.52v1.8h4.32a3.77 3.77 0 0 1-1 2.27 4.422 4.422 0 0 1-3.33 1.32 4.8 4.8 0 0 1 0-9.6A4.6 4.6 0 0 1 51 20.14l1.27-1.27A6.288 6.288 0 0 0 47.74 17a6.61 6.61 0 1 0 0 13.21 6 6 0 0 0 4.61-1.85 6 6 0 0 0 1.56-4.22 5.875 5.875 0 0 0-.1-1.13l-6.07.05zm45.31 1.4a4 4 0 0 0-3.64-2.71 4.001 4.001 0 0 0-4 4.25 4.161 4.161 0 0 0 4.22 4.25 4.23 4.23 0 0 0 3.54-1.88l-1.45-1a2.43 2.43 0 0 1-2.09 1.18 2.16 2.16 0 0 1-2.06-1.29l5.69-2.35-.21-.45zm-5.8 1.42a2.33 2.33 0 0 1 2.22-2.48 1.65 1.65 0 0 1 1.58.9l-3.8 1.58zM82.63 30h1.87V17.5h-1.87V30zm-3.06-7.3h-.07a3 3 0 0 0-2.24-1 4.26 4.26 0 0 0 0 8.51 2.9 2.9 0 0 0 2.24-1h.06v.61c0 1.63-.87 2.5-2.27 2.5a2.35 2.35 0 0 1-2.14-1.51l-1.63.68A4.05 4.05 0 0 0 77.29 34c2.19 0 4-1.29 4-4.43V22h-1.72v.7zm-2.14 5.88a2.59 2.59 0 0 1 0-5.16A2.402 2.402 0 0 1 79.7 26a2.38 2.38 0 0 1-2.28 2.58h.01zm24.38-11.08h-4.47V30h1.87v-4.74h2.61a3.889 3.889 0 1 0 0-7.76h-.01zm0 6H99.2v-4.26h2.65a2.147 2.147 0 0 1 1.517 3.662 2.147 2.147 0 0 1-1.517.628l-.04-.03zm11.53-1.8a3.498 3.498 0 0 0-3.33 1.91l1.66.69a1.777 1.777 0 0 1 1.7-.92 1.804 1.804 0 0 1 1.792.931c.114.21.184.441.208.679v.13a4.13 4.13 0 0 0-1.95-.48c-1.79 0-3.6 1-3.6 2.81a2.904 2.904 0 0 0 .969 2.03 2.892 2.892 0 0 0 2.131.72 2.634 2.634 0 0 0 2.4-1.2h.06v1h1.8v-4.81c0-2.19-1.66-3.46-3.79-3.46l-.05-.03zm-.23 6.85c-.61 0-1.46-.31-1.46-1.06 0-1 1.06-1.33 2-1.33a3.32 3.32 0 0 1 1.7.42 2.264 2.264 0 0 1-2.19 2l-.05-.03zM123.74 22l-2.14 5.42h-.06L119.32 22h-2l3.33 7.58-1.9 4.21h1.95L125.82 22h-2.08zm-16.81 8h1.87V17.5h-1.87V30z"/>
        <path fill="url(#1ccddbb9-5abe-4ec3-b053-6f09c54b5492)" d="M10.44 7.54a2 2 0 0 0-.46 1.4v22.12a2 2 0 0 0 .46 1.4l.07.07L22.9 20.15v-.29L10.51 7.47l-.07.07z"/>
        <path fill="url(#63853d77-cc5f-4b37-8284-170051ac57e7)" d="M27 24.28l-4.1-4.13v-.29l4.1-4.14.09.05L32 18.56c1.4.79 1.4 2.09 0 2.89l-4.89 2.78-.11.05z"/>
        <path fill="url(#1dd4f5ea-7e7d-412e-9429-feb8f7468b4c)" d="M27.12 24.22L22.9 20 10.44 32.46a1.63 1.63 0 0 0 2.08.06l14.61-8.3"/>
        <path fill="url(#5f4e2ded-0b4b-4beb-83d7-8c3a005b10da)" d="M27.12 15.78l-14.61-8.3a1.63 1.63 0 0 0-2.08.06L22.9 20l4.22-4.22z"/>
        <path fill="#000000" d="M27 24.13l-14.49 8.25a1.67 1.67 0 0 1-2 0l-.07.07.07.07a1.66 1.66 0 0 0 2 0l14.61-8.3-.12-.09z" opacity=".2"/>
        <path fill="#000000" d="M10.44 32.32a2 2 0 0 1-.46-1.4v.15a2 2 0 0 0 .46 1.4l.07-.07-.07-.08zM32 21.3l-5 2.83.09.09L32 21.44A1.75 1.75 0 0 0 33 20a1.86 1.86 0 0 1-1 1.3z" opacity=".12"/>
        <path fill="#ffffff" d="M12.51 7.62L32 18.7a1.858 1.858 0 0 1 1 1.3 1.75 1.75 0 0 0-1-1.44L12.51 7.48c-1.4-.79-2.54-.13-2.54 1.47v.15c.03-1.61 1.15-2.27 2.54-1.48z" opacity=".25"/>
        <path stroke-miterlimit="10" stroke-width=".2" stroke="#ffffff" fill="#ffffff" d="M42 11.4c1.34.023 2.679-.077 4-.3l.09.68c-1.4.248-2.82.356-4.24.32h-.71V6.22h4.17v.68H42v4.5zm7.18-1.83h-1.44v4.77h-.82v-9h.82V8.9h1.48l-.04.67zm9.17.34v.67h-3.58v1.81h-.83v-1.81h-3.72v-.67h8.13zm-7.21-2.52c0-1.11 1.24-1.8 3.14-1.8 1.9 0 3.14.69 3.14 1.8s-1.24 1.8-3.14 1.8c-1.9 0-3.14-.69-3.14-1.8zm.94 6.06h5.38v.68h-6.2V11.5h.82v1.95zM52 7.39c0 .7.91 1.13 2.28 1.13 1.37 0 2.28-.43 2.28-1.13s-.9-1.14-2.28-1.14S52 6.68 52 7.39zm15.22 5.15v.67h-8.15v-.67h3.65v-1.68h-2.63V8.09h5.32v-1.4h-5.34V6h6.14v2.73H60.9v1.47h5.52v.66h-2.87v1.69l3.67-.01zm9.35-.11v.68h-8.14v-.68h8.14zm-.94-2.11h-6.16V6.18h6.07v.68h-5.26v2.8h5.35v.66zm4.71-3.52h2.21v.66h-5.29V6.8h2.26V5.47h.82V6.8zm1.79 3.47a2.18 2.18 0 1 1-2.19-2.07 2 2 0 0 1 2.19 2.07zm-.78 0a1.4 1.4 0 1 0-1.41 1.38 1.352 1.352 0 0 0 1.41-1.38zm4.34-.53h-1.47v4.59h-.82v-9h.82V9h1.47v.74zm5.04-3.41a6.72 6.72 0 0 1-4.17 6.33l-.43-.66a5.93 5.93 0 0 0 3.78-5h-3.37v-.66l4.19-.01zm2.63-1v9h-.82v-9h.82z"/>
        <defs fill="none">
            <linearGradient gradientUnits="userSpaceOnUse" y2="25.49" x2="5.02" y1="8.71" x1="21.8" id="1ccddbb9-5abe-4ec3-b053-6f09c54b5492">
                <stop stop-color="#00A0FF"/>
                <stop stop-color="#00A1FF" offset=".01"/>
                <stop stop-color="#00BEFF" offset=".26"/>
                <stop stop-color="#00D2FF" offset=".51"/>
                <stop stop-color="#00DFFF" offset=".76"/>
                <stop stop-color="#00E3FF" offset="1"/>
            </linearGradient>
            <linearGradient gradientUnits="userSpaceOnUse" y2="20" x2="9.64" y1="20" x1="33.83" id="63853d77-cc5f-4b37-8284-170051ac57e7">
                <stop stop-color="#FFE000"/>
                <stop stop-color="#FFBD00" offset=".41"/>
                <stop stop-color="#FFA500" offset=".78"/>
                <stop stop-color="#FF9C00" offset="1"/>
            </linearGradient>
            <linearGradient gradientUnits="userSpaceOnUse" y2="45.05" x2="2.07" y1="22.3" x1="24.83" id="1dd4f5ea-7e7d-412e-9429-feb8f7468b4c">
                <stop stop-color="#FF3A44"/>
                <stop stop-color="#C31162" offset="1"/>
            </linearGradient>
            <linearGradient gradientUnits="userSpaceOnUse" y2="10.34" x2="17.46" y1=".18" x1="7.3" id="5f4e2ded-0b4b-4beb-83d7-8c3a005b10da">
                <stop stop-color="#32A071"/>
                <stop stop-color="#2DA771" offset=".07"/>
                <stop stop-color="#15CF74" offset=".48"/>
                <stop stop-color="#06E775" offset=".8"/>
                <stop stop-color="#00F076" offset="1"/>
            </linearGradient>
        </defs>
    </g>
</svg>
