<?xml version="1.0" encoding="UTF-8"?>
<svg data-bbox="0 0 134.961 40" xmlns:xlink="http://www.w3.org/1999/xlink" xmlns="http://www.w3.org/2000/svg" viewBox="0 0 135 40" data-type="ugc">
    <g>
        <g clip-path="url(#460aa6f6-dc68-44b9-b2e5-b337e7e47da2)">
            <path fill="#ffffff" d="M134.064 35.275a3.827 3.827 0 0 1-3.834 3.829H4.73a3.831 3.831 0 0 1-3.839-3.83V4.726A3.839 3.839 0 0 1 4.731.891H130.23a3.835 3.835 0 0 1 3.834 3.834v30.55z"/>
            <path fill="#A6A6A6" d="M130.23 40H4.73A4.731 4.731 0 0 1 0 35.275V4.725A4.735 4.735 0 0 1 4.73 0h125.5c2.604 0 4.731 2.122 4.731 4.725v30.55A4.735 4.735 0 0 1 130.23 40z"/>
            <path fill="#000000" d="M134.064 35.295a3.827 3.827 0 0 1-3.834 3.829H4.73a3.831 3.831 0 0 1-3.839-3.829V4.745A3.839 3.839 0 0 1 4.731.912H130.23a3.835 3.835 0 0 1 3.834 3.833v30.55z"/>
            <path fill="url(#31c6b668-83a6-45b5-abf3-556c1b2d22a2)" d="M21.712 7.095c-10.2 0-12.92 2.72-12.92 12.92s2.72 12.92 12.92 12.92 12.92-2.72 12.92-12.92-2.72-12.92-12.92-12.92z"/>
            <path fill="url(#09c7bae2-c9ae-464d-8a25-fc2da0475393)" d="M27.649 10.179v20.542H14.157V10.179h13.492z"/>
            <path fill="#ffffff" d="M21.904 12.58l-4.639 2.68a1.72 1.72 0 0 0 1.722 2.978l3.925-2.27-1.869 2.001v7.865c0 .947.775 1.722 1.722 1.722s1.722-.775 1.722-1.722V14.07c0-.329-.101-.653-.228-.86-.49-.811-1.534-1.105-2.355-.629z"/>
            <path fill="url(#98f4ac37-73e3-4b43-9c12-51febb191720)" d="M17.817 32.935h16.815V10.271L17.817 21.935v11z"/>
            <path fill="url(#12a278a0-a434-42b1-abf9-8ac15ef032a9)" d="M17.817 32.935H8.792V11.598l9.025 10.337v11z"/>
            <path fill="#ffffff" d="M88.225 23.282c-.983 0-1.666.517-1.666 1.271 0 .684.445 1.124 1.352 1.327l1.423.334c1.722.405 2.573 1.256 2.573 2.548 0 1.605-1.332 2.714-3.388 2.714-1.368 0-2.462-.425-3.292-1.27-.314-.35-.335-.664-.036-.958.314-.314.648-.294.962.02.669.648 1.444.957 2.35.957 1.277 0 2.036-.516 2.036-1.382 0-.648-.48-1.09-1.423-1.312l-1.352-.314c-1.722-.405-2.573-1.271-2.573-2.603 0-.81.314-1.439.927-1.9.613-.46 1.352-.698 2.203-.698 1.094 0 2.016.35 2.76 1.033.37.35.405.684.091 1.013-.278.294-.612.278-1.038-.076a2.89 2.89 0 0 0-1.91-.704z"/>
            <path fill="#ffffff" d="M97.99 30.722c0 .425-.28.628-.816.628-2 0-2.851-.648-2.851-2.841v-4.964h-.942c-.481 0-.725-.202-.725-.628 0-.425.243-.628.725-.628h.942v-1.494c0-.516.223-.775.683-.775.461 0 .684.259.684.775v1.49h1.575c.481 0 .724.202.724.627 0 .426-.238.628-.724.628H95.69v4.872c0 1.327.314 1.682 1.59 1.682.466 0 .71.202.71.628z"/>
            <path fill="#ffffff" d="M100.36 30.109c-.871-.922-1.297-2.046-1.297-3.358 0-1.312.425-2.436 1.297-3.358.871-.921 1.96-1.382 3.256-1.382 1.297 0 2.386.46 3.257 1.382.886.922 1.332 2.046 1.332 3.358 0 1.312-.446 2.436-1.312 3.358-.871.907-1.96 1.367-3.277 1.367-1.291 0-2.385-.46-3.256-1.367zm5.535-.886c.593-.664.886-1.494.886-2.472 0-.977-.293-1.808-.886-2.456-.592-.664-1.352-.998-2.274-.998-.906 0-1.666.334-2.259.998-.592.648-.886 1.474-.886 2.456 0 .978.294 1.808.886 2.472.593.648 1.353.977 2.259.977.922 0 1.682-.329 2.274-.977z"/>
            <path fill="#ffffff" d="M111.355 27.415v3.175c0 .517-.223.775-.684.775-.461 0-.684-.258-.684-.775v-7.693c0-.496.294-.755.669-.755.446 0 .668.259.668.755v.481c.704-.85 1.687-1.271 2.963-1.271l.669.076c.425.091.628.314.628.684 0 .39-.279.683-.775.607a3.534 3.534 0 0 0-.517-.055c-2.066-.005-2.937 1.099-2.937 3.996z"/>
            <path fill="#ffffff" d="M123.267 27.177h-5.83c.132 1.899 1.277 3.028 3.054 3.028.851 0 1.591-.314 2.203-.922.35-.349.684-.349.998-.035.279.314.238.648-.091.977-.871.831-1.904 1.256-3.11 1.256-1.352 0-2.441-.425-3.256-1.291-.795-.866-1.206-1.99-1.206-3.378 0-1.327.406-2.456 1.206-3.393.815-.942 1.833-1.403 3.074-1.403 2.811 0 3.905 2.289 3.905 4.32 0 .562-.314.84-.947.84zm-5.774-1.221h5.328c-.02-1.605-.983-2.659-2.482-2.659-1.549.005-2.623 1.11-2.846 2.659z"/>
            <path fill="#ffffff" d="M48.56 18.511a6.568 6.568 0 0 0-6.575 6.564 6.568 6.568 0 0 0 6.574 6.564 6.568 6.568 0 0 0 6.574-6.564c.005-3.621-2.943-6.564-6.574-6.564zm0 10.18a3.614 3.614 0 0 1-3.617-3.611 3.614 3.614 0 0 1 3.616-3.611 3.61 3.61 0 1 1 0 7.222z"/>
            <path fill="#ffffff" d="M58.597 18.547c.471 0 .871.232 1.16.567l9.177 10.007c.243.274.42.628.42 1.028 0 .816-.658 1.474-1.474 1.474-.47 0-.866-.233-1.16-.567l-6.644-7.116v6.225c0 .815-.659 1.473-1.474 1.473a1.472 1.472 0 0 1-1.474-1.473V20.02a1.465 1.465 0 0 1 1.47-1.473z"/>
            <path fill="#ffffff" d="M69.273 23.738a1.518 1.518 0 1 1-3.039 0V20.05c0-.841.68-1.52 1.52-1.52s1.52.679 1.52 1.52v3.687z"/>
            <path fill="#ffffff" d="M79.94 28.696h-5.33v-2.127h4.786c.816 0 1.474-.659 1.474-1.474s-.658-1.474-1.474-1.474H74.61v-2.127h5.328c.816 0 1.474-.658 1.474-1.474 0-.815-.658-1.473-1.474-1.473h-6.807c-.815 0-1.473.658-1.473 1.473v10.155c0 .815.658 1.474 1.473 1.474h6.802c.816 0 1.474-.659 1.474-1.474 0-.816-.659-1.479-1.469-1.479z"/>
            <path fill="#ffffff" d="M43.13 9.785c-.162 0-.198.02-.198.182v2.416c0 .152.03.182.193.192.785.03 1.595-.005 2.395-.207.233-.061.395.177.395.405 0 .192-.096.309-.217.344-.557.167-1.419.264-2.355.264-.932 0-1.353.015-1.353-.735V9.658c0-.486.193-.684.74-.684h2.284c.213 0 .314.183.314.406 0 .233-.101.405-.314.405H43.13zm3.18-1.039c0-.227.198-.354.456-.354.274 0 .471.127.471.354v2.021h.795c.228 0 .31.167.31.395s-.082.405-.31.405h-.795v3.272c0 .263-.197.38-.47.38-.264 0-.457-.117-.457-.38V8.746z"/>
            <path fill="#ffffff" d="M52.61 13.512c0 .233-.232.355-.49.355-.274 0-.487-.117-.487-.355v-.982h-2.471c-.198 0-.289-.198-.289-.38 0-.193.086-.395.289-.395h5.799c.197 0 .294.208.294.395 0 .182-.097.38-.294.38h-2.35v.982zm-.54-4.942c1.666 0 2.34.557 2.34 1.388 0 .836-.674 1.393-2.34 1.393-1.661 0-2.35-.557-2.35-1.393 0-.825.689-1.388 2.35-1.388zm-2.325 4.893c0-.233.228-.36.492-.36.248 0 .486.127.486.36v.86c0 .143.02.153.162.153h3.261c.213 0 .314.167.314.395 0 .217-.101.395-.314.395H50.55c-.536 0-.8-.127-.8-.684v-1.12h-.005zM52.07 10.6c1.013 0 1.383-.243 1.383-.638 0-.39-.365-.633-1.383-.633-1.013 0-1.388.243-1.388.633 0 .395.375.638 1.388.638z"/>
            <path fill="#ffffff" d="M58.531 12.535h-1.205c-.486 0-.669-.193-.669-.674v-.952c0-.425.162-.633.588-.633h2.937c.132 0 .162-.03.162-.167v-.39c0-.132-.02-.152-.162-.152h-3.23c-.198 0-.33-.213-.33-.42 0-.213.132-.406.33-.406h3.722c.47 0 .623.178.623.634v.997c0 .486-.178.638-.669.638h-2.861c-.132 0-.152.02-.152.152v.461c0 .112.03.132.151.132h3.475c.248 0 .34.162.34.38 0 .212-.087.395-.34.395h-1.742v.992h2.4c.198 0 .299.178.299.395 0 .233-.101.406-.299.406H56.12c-.192 0-.298-.168-.298-.406 0-.217.111-.395.298-.395h2.406v-.987h.005z"/>
            <path fill="#ffffff" d="M63.07 14.267c-.198 0-.3-.167-.3-.395s.102-.395.3-.395h5.768c.207 0 .309.167.309.395s-.102.395-.31.395H63.07zm.551-4.736c0-.506.177-.673.72-.673h3.712c.212 0 .324.162.324.405 0 .223-.112.395-.324.395h-3.277c-.147 0-.167.02-.167.167v1.459c0 .147.02.167.167.167h3.287c.223 0 .329.167.329.405 0 .228-.117.395-.34.395h-3.626c-.552 0-.815-.066-.815-.668V9.53h.01z"/>
            <path fill="#ffffff" d="M69.85 10.752c-.217 0-.308-.208-.308-.405 0-.213.096-.395.309-.395h3.54c.212 0 .314.192.314.395 0 .197-.096.405-.314.405h-3.54zm1.824.324c.962 0 1.65.542 1.65 1.423 0 .887-.688 1.439-1.65 1.439-.963 0-1.651-.552-1.651-1.439 0-.88.694-1.423 1.65-1.423zm-.836-1.615c-.218 0-.299-.198-.299-.406 0-.212.097-.395.3-.395h1.605c.207 0 .309.193.309.395 0 .208-.097.406-.31.406h-1.605zm.836 3.758c.42 0 .78-.243.78-.72 0-.47-.36-.719-.78-.719-.42 0-.77.248-.77.72 0 .476.355.719.77.719zM74.1 8.74c0-.217.197-.354.46-.354.264 0 .462.132.462.354v2.315h.795c.228 0 .314.167.314.395 0 .233-.087.405-.314.405h-.795v2.988c0 .264-.193.39-.461.39-.269 0-.461-.126-.461-.39V8.741z"/>
            <path fill="#ffffff" d="M79.352 8.954c.537 0 .78.066.78.648 0 1.915-.978 3.232-2.776 4.001a.583.583 0 0 1-.228.051c-.197 0-.435-.182-.435-.491 0-.147.076-.289.182-.33 1.388-.587 2.27-1.504 2.27-2.901 0-.142-.036-.178-.198-.178h-1.814c-.207 0-.339-.162-.339-.405 0-.228.132-.395.34-.395h2.218zm1.894-.208c0-.227.197-.354.47-.354.26 0 .462.127.462.354v6.093c0 .263-.198.38-.461.38-.274 0-.471-.117-.471-.38V8.746z"/>
        </g>
        <defs fill="none">
            <pattern height="1" width="1" patternContentUnits="objectBoundingBox" id="09c7bae2-c9ae-464d-8a25-fc2da0475393">
                <use xlink:href="#a32f8391-4a75-4105-9f0b-0134ebaf4485"/>
            </pattern>
            <linearGradient gradientUnits="userSpaceOnUse" y2="30.561" x2="32.187" y1="5.077" x1="6.874" id="31c6b668-83a6-45b5-abf3-556c1b2d22a2">
                <stop stop-color="#F3742E"/>
                <stop stop-color="#ED0A72" offset="1"/>
            </linearGradient>
            <linearGradient gradientUnits="userSpaceOnUse" y2="23.139" x2="28.014" y1="12.013" x1="15.071" id="98f4ac37-73e3-4b43-9c12-51febb191720">
                <stop stop-opacity=".5" stop-color="#ffffff"/>
                <stop stop-opacity="0" stop-color="#ffffff" offset="1"/>
            </linearGradient>
            <linearGradient gradientUnits="userSpaceOnUse" y2="22.496" x2="13.13" y1="5.714" x1="26.012" id="12a278a0-a434-42b1-abf9-8ac15ef032a9">
                <stop stop-opacity=".5" stop-color="#ffffff"/>
                <stop stop-opacity="0" stop-color="#ffffff" offset="1"/>
            </linearGradient>
            <clipPath id="460aa6f6-dc68-44b9-b2e5-b337e7e47da2">
                <path fill="#ffffff" d="M0 0h134.961v40H0V0z"/>
            </clipPath>
        </defs>
    </g>
</svg>
